<svg xmlns="http://www.w3.org/2000/svg" width="80" height="72.089" viewBox="0 0 80 72.089"><defs><style>.a{fill:#3b4eb0;}.b{fill:#36436d;}.c{fill:#ff7570;}</style></defs><g transform="translate(0)"><path class="a" d="M3.3,72.089a3.373,3.373,0,0,1-2.288-.91A3.2,3.2,0,0,1,0,68.82V3.269A3.2,3.2,0,0,1,1.011.91,3.373,3.373,0,0,1,3.3,0a3.263,3.263,0,0,1,1.94.644l8.684,6.37,2.914,2.138a10.5,10.5,0,0,0,.457,14.5,10.749,10.749,0,0,0,7.579,3.1,10.74,10.74,0,0,0,9.116-5.018L49.922,33.42a3.249,3.249,0,0,1,0,5.249L5.238,71.445A3.263,3.263,0,0,1,3.3,72.089Z" transform="translate(28.744 0)"/><path class="b" d="M10.878.674a2.109,2.109,0,0,1,3.091,0l10.3,11.052a2.136,2.136,0,0,1-1.545,3.595H2.124A2.136,2.136,0,0,1,.578,11.726l8.08-8.67Z" transform="translate(24.312 30.074) rotate(90)"/><path class="c" d="M17.262,1.069a3.347,3.347,0,0,1,4.9,0L38.511,18.608a3.39,3.39,0,0,1-2.452,5.7H3.37a3.39,3.39,0,0,1-2.452-5.7L13.74,4.849Z" transform="translate(24.312 16.33) rotate(90)"/><g transform="translate(28.744 25.719)"><path class="b" d="M301.4,396.05l-10.5-7.7-39.424,28.919V431.45a3.2,3.2,0,0,0,1.011,2.36,3.372,3.372,0,0,0,2.288.91,3.265,3.265,0,0,0,1.94-.646L301.4,401.3a3.249,3.249,0,0,0,0-5.249Z" transform="translate(-251.481 -388.35)"/></g></g></svg>