<svg xmlns="http://www.w3.org/2000/svg" xmlns:xlink="http://www.w3.org/1999/xlink" width="216.483" height="33.871" viewBox="0 0 216.483 33.871">
  <defs>
    <linearGradient id="linear-gradient" x1="0.5" x2="0.5" y2="1" gradientUnits="objectBoundingBox">
      <stop offset="0" stop-color="#5bc43a"/>
      <stop offset="1" stop-color="#3ac46d"/>
    </linearGradient>
  </defs>
  <g id="Logo" transform="translate(0 0.2)">
    <g id="Emblem" transform="translate(0 0)">
      <path id="Union_1" data-name="Union 1" d="M17.09,32.148,1.634,17.2a5.276,5.276,0,0,1,0-7.635l8.249-7.98a5.713,5.713,0,0,1,7.89,0l2.972,2.875L33.427,16.725a5.008,5.008,0,0,0,6.916,0L36.884,20.07l-9.222,8.923L24.2,32.339a4.8,4.8,0,0,0,.535-.613,4.874,4.874,0,0,1-.91.94,4.75,4.75,0,0,1-2.97,1.005A5.469,5.469,0,0,1,17.09,32.148Zm7.651-.424.033-.046Zm.04-.055.028-.04Zm.037-.053.025-.037Zm.035-.051.024-.037Zm.034-.051.022-.034Zm.033-.052.015-.024Zm.033-.052.013-.022Zm.032-.052L25,31.335Zm.028-.048.014-.025Zm.029-.05.015-.026Zm.029-.052.014-.025Zm.028-.052.013-.025Zm.027-.052.012-.024Zm.027-.054.009-.018Zm.027-.054.008-.017Zm.026-.054.007-.016Zm.025-.054.007-.015Zm.024-.054.006-.014Zm.024-.055,0-.011Zm.021-.051,0-.012Zm.021-.052,0-.011Zm.021-.053,0-.012Zm.021-.055,0-.011Zm.019-.054,0-.013Zm.019-.055,0-.012Zm.018-.056,0-.011Zm.018-.057,0-.008Zm.017-.056,0-.007Zm.015-.053,0-.007Zm.015-.053,0-.009Zm.015-.056,0-.008Zm.014-.055,0-.009Zm.013-.057,0-.008Zm.012-.057,0-.008Zm.012-.058v0Zm.011-.057v0Zm.02-.113h0Zm.009-.055v0Zm.008-.056v0Zm.007-.056v0Zm.007-.057v0Zm.006-.058v0ZM15.468,17.2,24.2,25.647,15.468,17.2a5.294,5.294,0,0,1-1.634-3.817A5.294,5.294,0,0,0,15.468,17.2ZM3.627,12.263a1.948,1.948,0,0,0,0,2.82,2.111,2.111,0,0,0,2.914,0,1.949,1.949,0,0,0,0-2.82,2.112,2.112,0,0,0-2.914,0Z" transform="translate(0 0)" fill="url(#linear-gradient)"/>
      <g id="Group_15" data-name="Group 15" transform="translate(21.089 0.3)">
        <path id="Path_34" data-name="Path 34" d="M103.346,141.041l-2.919,2.9L112.692,156.1a5.024,5.024,0,0,0,6.621.522,4.741,4.741,0,0,0,.368-7.069l-8.582-8.512A5.515,5.515,0,0,0,103.346,141.041Z" transform="translate(-100.427 -139.449)" fill="#042e28" stroke="rgba(0,0,0,0)" stroke-width="1"/>
      </g>
      <path id="Path_37" data-name="Path 37" d="M107.3,159.733,94.845,147.694,89.66,152.7a5.171,5.171,0,0,0,0,7.491l8.583,8.293a4.533,4.533,0,0,1,0,6.566l3.4-3.283,9.061-8.756,3.4-3.283A4.924,4.924,0,0,1,107.3,159.733Z" transform="translate(-73.756 -142.931)" fill="#00859b" stroke="rgba(0,0,0,0)" stroke-width="1" opacity="0.38"/>
    </g>
    <path id="Path_38" data-name="Path 38" d="M-66.369-5.4v-9.8q0-4.353-2.8-4.353-3.342,0-3.5,4.731V-5.4h-5.868v-9.8q0-4.353-2.8-4.353A3.042,3.042,0,0,0-83.9-18.33a6.144,6.144,0,0,0-.933,3.728v9.2H-90.7V-24.33h5.868v1.93a6.032,6.032,0,0,1,4.975-2.347,6.4,6.4,0,0,1,5.985,3.331A5.666,5.666,0,0,1-71.3-23.895a7.612,7.612,0,0,1,3.42-.852,6.761,6.761,0,0,1,5.46,2.271A9.424,9.424,0,0,1-60.5-16.192V-5.4Zm12.98-21.5a3.588,3.588,0,0,1-2.565-1.041,3.356,3.356,0,0,1-1.088-2.517,3.356,3.356,0,0,1,1.088-2.517,3.588,3.588,0,0,1,2.565-1.041,3.616,3.616,0,0,1,2.623,1.041A3.385,3.385,0,0,1-49.7-30.462a3.385,3.385,0,0,1-1.069,2.517A3.616,3.616,0,0,1-53.389-26.9ZM-56.3-5.4V-24.33h5.868V-5.4Zm10.3,0V-24.33h5.868v1.93q1.671-2.347,5.4-2.347A6.942,6.942,0,0,1-29.2-22.437a8.975,8.975,0,0,1,2,6.094V-5.4h-5.868v-9.955q0-4.2-3.148-4.2a3.584,3.584,0,0,0-2.837,1.249A5.506,5.506,0,0,0-40.136-14.6v9.2Zm32.684.227a8.458,8.458,0,0,1-5.616-1.836,6.54,6.54,0,0,1-2.2-5.318v-7.04h-3.886V-24.33h3.886v-5.261h5.868v5.261h5.441v4.959h-5.441V-13.5a3.322,3.322,0,0,0,.777,2.46,3.53,3.53,0,0,0,2.526.757,5.625,5.625,0,0,0,2.137-.341v5.072A12.838,12.838,0,0,1-13.321-5.177Zm7-.227,3.3-15.217H-7.064l.816-3.709h4.042l.661-3.1a8.181,8.181,0,0,1,2.818-4.921,8.319,8.319,0,0,1,5.3-1.665,9.442,9.442,0,0,1,3.07.454l-.816,3.709a5.349,5.349,0,0,0-2.215-.379,3.748,3.748,0,0,0-4,3.369L2.069-24.33H7.627L6.811-20.62H1.253L-2.05-5.4Zm13.214,0,6.179-28.389h4.275L11.163-5.4ZM26.981-8.886a6.014,6.014,0,0,0,4.489-1.855,6.261,6.261,0,0,0,1.807-4.542,5.58,5.58,0,0,0-1.457-4.069,5.255,5.255,0,0,0-3.945-1.5,5.951,5.951,0,0,0-4.469,1.855,6.3,6.3,0,0,0-1.788,4.542,5.566,5.566,0,0,0,1.457,4.088A5.241,5.241,0,0,0,26.981-8.886Zm-.35,3.9a8.929,8.929,0,0,1-6.9-2.669,9.165,9.165,0,0,1-2.468-6.454A10.283,10.283,0,0,1,20.3-21.661a10.692,10.692,0,0,1,7.928-3.047,8.963,8.963,0,0,1,6.9,2.65,9.1,9.1,0,0,1,2.468,6.435,10.381,10.381,0,0,1-3.012,7.57A10.641,10.641,0,0,1,26.631-4.988ZM42.876-5.4,40.466-24.33h4.275L46.14-11.2,53.524-24.33h3.3l1.516,12.983,7-12.983h4.78L59.47-5.4H55.429L53.913-17.592l-7,12.188Z" transform="translate(146.365 36.339)" fill="#01221d"/>
  </g>
</svg>
